<svg xmlns="http://www.w3.org/2000/svg" xmlns:xlink="http://www.w3.org/1999/xlink" xmlns:lucid="lucid" width="973.01" height="1259.19"><g transform="translate(0 0)" lucid:page-tab-id="0_0"><path d="M11.45 108.43h623.1v47.7H11.44z" stroke="#000" stroke-width="2" fill="#c1e4f7" fill-opacity=".48"/><use xlink:href="#a" transform="matrix(1,0,0,1,16.44718851478018,113.42969462236927) translate(67.16666666666666 32)"/><use xlink:href="#b" transform="matrix(1,0,0,1,16.44718851478018,113.42969462236927) translate(380.16666666666663 32)"/><use xlink:href="#c" transform="matrix(1,0,0,1,16.44718851478018,113.42969462236927) translate(474.6111111111111 32)"/><path d="M11.45 155.83h623.1v47.7H11.44z" stroke="#000" stroke-width="2" fill="#c1e4f7" fill-opacity=".48"/><use xlink:href="#d" transform="matrix(1,0,0,1,16.44718851478018,160.8332440050853) translate(57.260398278864955 31.846360547127247)"/><use xlink:href="#e" transform="matrix(1,0,0,1,16.44718851478018,160.8332440050853) translate(390.8731405381806 31.846360547127247)"/><use xlink:href="#f" transform="matrix(1,0,0,1,16.44718851478018,160.8332440050853) translate(484.8641352085215 31.846360547127247)"/><path d="M11.45 203.83h623.1v47.7H11.44z" stroke="#000" stroke-width="2" fill="#ffbbb1" fill-opacity=".48"/><use xlink:href="#g" transform="matrix(1,0,0,1,16.44718851478018,208.83324400508525) translate(135.61111111111111 32)"/><path d="M11.45 251.83h623.1v47.7H11.44z" stroke="#000" stroke-width="2" fill="#c1e4f7" fill-opacity=".48"/><use xlink:href="#h" transform="matrix(1,0,0,1,16.44718851478018,256.8332440050853) translate(44.94444444444446 32)"/><use xlink:href="#b" transform="matrix(1,0,0,1,16.44718851478018,256.8332440050853) translate(402.3888888888889 32)"/><use xlink:href="#c" transform="matrix(1,0,0,1,16.44718851478018,256.8332440050853) translate(496.83333333333337 32)"/><path d="M11.45 301.12h623.1v47.7H11.44z" stroke="#000" stroke-width="2" fill="#c1e4f7" fill-opacity=".48"/><use xlink:href="#i" transform="matrix(1,0,0,1,16.44718851478018,306.124910671752) translate(33.833333333333314 32)"/><use xlink:href="#b" transform="matrix(1,0,0,1,16.44718851478018,306.124910671752) translate(413.5 32)"/><use xlink:href="#c" transform="matrix(1,0,0,1,16.44718851478018,306.124910671752) translate(507.94444444444446 32)"/><path d="M11.45 348.83h623.1v47.7H11.44z" stroke="#000" stroke-width="2" fill="#ffbbb1" fill-opacity=".48"/><use xlink:href="#g" transform="matrix(1,0,0,1,16.44718851478018,353.8332440050853) translate(135.61111111111111 32)"/><path d="M11.45 396.83h623.1v47.7H11.44z" stroke="#000" stroke-width="2" fill="#c1e4f7" fill-opacity=".48"/><use xlink:href="#j" transform="matrix(1,0,0,1,16.44718851478018,401.8332440050853) translate(33.833333333333314 32)"/><use xlink:href="#b" transform="matrix(1,0,0,1,16.44718851478018,401.8332440050853) translate(413.5 32)"/><use xlink:href="#c" transform="matrix(1,0,0,1,16.44718851478018,401.8332440050853) translate(507.94444444444446 32)"/><path d="M634.5 156.1h326.93v47.72H634.5z" stroke="#000" stroke-width="2" fill="#c1e4f7" fill-opacity=".48"/><use xlink:href="#k" transform="matrix(1,0,0,1,639.5134341900114,161.10670516278407) translate(50.13391202713646 31.846360547127247)"/><path d="M634.5 204.1h326.93v47.72H634.5z" stroke="#000" stroke-width="2" fill="#ffbbb1" fill-opacity=".48"/><use xlink:href="#l" transform="matrix(1,0,0,1,639.5134341900114,209.10670516278395) translate(52.6111111111111 32)"/><path d="M634.5 252.1h326.93v47.72H634.5z" stroke="#000" stroke-width="2" fill="#c1e4f7" fill-opacity=".5"/><use xlink:href="#m" transform="matrix(1,0,0,1,639.5134341900114,257.10670516278395) translate(41.499999999999986 32)"/><path d="M634.5 301.4h326.93v47.7H634.5z" stroke="#000" stroke-width="2" fill="#c1e4f7" fill-opacity=".48"/><use xlink:href="#m" transform="matrix(1,0,0,1,639.5134341900114,306.3983718294505) translate(41.499999999999986 32)"/><path d="M634.5 349.1h326.93v47.72H634.5z" stroke="#000" stroke-width="2" fill="#ffbbb1" fill-opacity=".48"/><use xlink:href="#n" transform="matrix(1,0,0,1,639.5134341900114,354.10670516278384) translate(60.722222222222214 32)"/><path d="M634.5 397.1h326.93v47.72H634.5z" stroke="#000" stroke-width="2" fill="#c1e4f7" fill-opacity=".48"/><use xlink:href="#o" transform="matrix(1,0,0,1,639.5134341900114,402.106705162784) translate(60.722222222222214 32)"/><path d="M121.38 11.45H525.5v49H121.4z" stroke="#000" stroke-width="2" fill="#fff"/><use xlink:href="#p" transform="matrix(1,0,0,1,126.38020359396472,16.44718851478016) translate(36.5 32)"/><use xlink:href="#q" transform="matrix(1,0,0,1,126.38020359396472,16.44718851478016) translate(136.5 32)"/><path d="M634.5 59.05h326.93V108H634.5z" stroke="#fff" stroke-width="2" fill="#fff"/><use xlink:href="#r" transform="matrix(1,0,0,1,639.5134341900114,64.05076380475917) translate(54.111111111111114 32)"/><use xlink:href="#s" transform="matrix(1,0,0,1,639.5134341900114,64.05076380475917) translate(185.22222222222223 32)"/><path d="M634.5 108.7h326.93v47.7H634.5z" stroke="#000" stroke-width="2" fill="#c1e4f7" fill-opacity=".5"/><use xlink:href="#t" transform="matrix(1,0,0,1,639.5134341900114,113.70315578006789) translate(49.6111111111111 32)"/><path d="M11.45 446.1h623.1v47.72H11.44z" stroke="#000" stroke-width="2" fill="#c1e4f7" fill-opacity=".48"/><use xlink:href="#u" transform="matrix(1,0,0,1,16.44718851478018,451.10670516278367) translate(33.833333333333314 32)"/><use xlink:href="#b" transform="matrix(1,0,0,1,16.44718851478018,451.10670516278367) translate(413.5 32)"/><use xlink:href="#c" transform="matrix(1,0,0,1,16.44718851478018,451.10670516278367) translate(507.94444444444446 32)"/><path d="M11.45 493.5h623.1v47.72H11.44z" stroke="#000" stroke-width="2" fill="#c1e4f7" fill-opacity=".48"/><use xlink:href="#u" transform="matrix(1,0,0,1,16.44718851478018,498.51025454549955) translate(33.833333333333314 32)"/><use xlink:href="#b" transform="matrix(1,0,0,1,16.44718851478018,498.51025454549955) translate(413.5 32)"/><use xlink:href="#c" transform="matrix(1,0,0,1,16.44718851478018,498.51025454549955) translate(507.94444444444446 32)"/><path d="M11.45 541.5h623.1v47.72H11.44z" stroke="#000" stroke-width="2" fill="#ffbbb1" fill-opacity=".48"/><use xlink:href="#g" transform="matrix(1,0,0,1,16.44718851478018,546.5102545454995) translate(135.61111111111111 32)"/><path d="M11.45 975.6h623.1v47.7H11.44z" stroke="#000" stroke-width="2" fill="#ffdf71" fill-opacity=".48"/><use xlink:href="#v" transform="matrix(1,0,0,1,16.44718851478018,980.6022827071472) translate(58.5 32)"/><use xlink:href="#w" transform="matrix(1,0,0,1,16.44718851478018,980.6022827071472) translate(315.94444444444446 32)"/><use xlink:href="#x" transform="matrix(1,0,0,1,16.44718851478018,980.6022827071472) translate(429.1666666666667 32)"/><path d="M11.45 1023.3h623.1v47.72H11.44z" stroke="#000" stroke-width="2" fill="#999" fill-opacity=".48"/><use xlink:href="#y" transform="matrix(1,0,0,1,16.44718851478018,1028.31061604048) translate(194.99999999999997 32)"/><path d="M11.45 1071.3h623.1v47.72H11.44z" stroke="#000" stroke-width="2" fill="#ffdf71" fill-opacity=".48"/><use xlink:href="#z" transform="matrix(1,0,0,1,16.44718851478018,1076.31061604048) translate(80.72222222222223 32)"/><use xlink:href="#A" transform="matrix(1,0,0,1,16.44718851478018,1076.31061604048) translate(315.94444444444446 32)"/><use xlink:href="#B" transform="matrix(1,0,0,1,16.44718851478018,1076.31061604048) translate(429.1666666666667 32)"/><path d="M633.45 494.06h327.98v47.7H633.45z" stroke="#000" stroke-width="2" fill="#c1e4f7" fill-opacity=".48"/><use xlink:href="#o" transform="matrix(1,0,0,1,638.4471885147801,499.0551404132196) translate(61.222222222222214 32)"/><path d="M634.5 541.78h326.93v47.7H634.5z" stroke="#000" stroke-width="2" fill="#ffbbb1" fill-opacity=".48"/><use xlink:href="#C" transform="matrix(1,0,0,1,639.5134341900114,546.7837157031981) translate(60.722222222222214 32)"/><path d="M633.45 975.56h327.98v47.7H633.45z" stroke="#000" stroke-width="2" fill="#ffdf71" fill-opacity=".48"/><use xlink:href="#D" transform="matrix(1,0,0,1,638.4471885147802,980.5638352415338) translate(114.55555555555556 32)"/><path d="M634.5 1023.58h326.93v47.7H634.5z" stroke="#000" stroke-width="2" fill="#999" fill-opacity=".48"/><use xlink:href="#D" transform="matrix(1,0,0,1,639.5134341900114,1028.5840771981789) translate(114.05555555555556 32)"/><path d="M634.5 1071.58h326.93v47.7H634.5z" stroke="#000" stroke-width="2" fill="#ffdf71" fill-opacity=".48"/><use xlink:href="#D" transform="matrix(1,0,0,1,639.5134341900114,1076.5840771981789) translate(114.05555555555556 32)"/><path d="M634.5 446.38h326.93v47.7H634.5z" stroke="#000" stroke-width="2" fill="#c1e4f7" fill-opacity=".5"/><use xlink:href="#o" transform="matrix(1,0,0,1,639.5134341900114,451.38016632048226) translate(60.722222222222214 32)"/><path d="M11.45 1167.02h622.23v47.7H11.45z" stroke="#000" stroke-width="2" fill="#ffdf71" fill-opacity=".48"/><use xlink:href="#z" transform="matrix(1,0,0,1,16.44718851478018,1172.0189493738128) translate(137.83333333333331 32)"/><use xlink:href="#E" transform="matrix(1,0,0,1,16.44718851478018,1172.0189493738128) translate(373.05555555555554 32)"/><path d="M633.58 1166.86h327.98v47.7H633.58z" stroke="#000" stroke-width="2" fill="#ffdf71" fill-opacity=".48"/><use xlink:href="#F" transform="matrix(1,0,0,1,638.5848060694448,1171.8555019082005) translate(114.55555555555556 32)"/><path d="M323 61.46V89.2" stroke="#000" stroke-width="2" fill="none"/><path d="M324 61.46h-2v-1h2zM323 104.2l-4.64-14.27h9.27z"/><path d="M323 107.43l-6.02-18.5H329zm-3.26-16.5l3.25 10.03 3.25-10.03z"/><path d="M11.45 590.2h623.1v47.7H11.44z" stroke="#000" stroke-width="2" fill="#c1e4f7" fill-opacity=".48"/><use xlink:href="#G" transform="matrix(1,0,0,1,16.44718851478018,595.1872650859136) translate(33.833333333333314 32)"/><use xlink:href="#b" transform="matrix(1,0,0,1,16.44718851478018,595.1872650859136) translate(413.5 32)"/><use xlink:href="#c" transform="matrix(1,0,0,1,16.44718851478018,595.1872650859136) translate(507.94444444444446 32)"/><path d="M634.5 590.46h326.93v47.7H634.5z" stroke="#000" stroke-width="2" fill="#c1e4f7" fill-opacity=".48"/><use xlink:href="#H" transform="matrix(1,0,0,1,639.5134341900114,595.4607262436123) translate(60.722222222222214 32)"/><path d="M11.45 639.46h623.1v47.7H11.44z" stroke="#000" stroke-width="2" fill="#c1e4f7" fill-opacity=".48"/><use xlink:href="#I" transform="matrix(1,0,0,1,16.44718851478018,644.460726243612) translate(33.833333333333314 32)"/><use xlink:href="#b" transform="matrix(1,0,0,1,16.44718851478018,644.460726243612) translate(413.5 32)"/><use xlink:href="#c" transform="matrix(1,0,0,1,16.44718851478018,644.460726243612) translate(507.94444444444446 32)"/><path d="M11.45 686.86h623.1v47.7H11.44z" stroke="#000" stroke-width="2" fill="#c1e4f7" fill-opacity=".48"/><use xlink:href="#I" transform="matrix(1,0,0,1,16.44718851478018,691.8642756263279) translate(33.833333333333314 32)"/><use xlink:href="#b" transform="matrix(1,0,0,1,16.44718851478018,691.8642756263279) translate(413.5 32)"/><use xlink:href="#c" transform="matrix(1,0,0,1,16.44718851478018,691.8642756263279) translate(507.94444444444446 32)"/><path d="M11.45 734.86h623.1v47.7H11.44z" stroke="#000" stroke-width="2" fill="#ffbbb1" fill-opacity=".48"/><use xlink:href="#g" transform="matrix(1,0,0,1,16.44718851478018,739.8642756263279) translate(135.61111111111111 32)"/><path d="M633.45 687.4h327.98v47.72H633.45z" stroke="#000" stroke-width="2" fill="#c1e4f7" fill-opacity=".48"/><g><use xlink:href="#H" transform="matrix(1,0,0,1,638.4471885147801,692.4091614940479) translate(61.222222222222214 32)"/></g><path d="M634.5 735.14h326.93v47.7H634.5z" stroke="#000" stroke-width="2" fill="#ffbbb1" fill-opacity=".48"/><g><use xlink:href="#J" transform="matrix(1,0,0,1,639.5134341900114,740.1377367840265) translate(60.722222222222214 32)"/></g><path d="M634.5 639.73h326.93v47.7H634.5z" stroke="#000" stroke-width="2" fill="#c1e4f7" fill-opacity=".5"/><g><use xlink:href="#H" transform="matrix(1,0,0,1,639.5134341900114,644.7341874013107) translate(60.722222222222214 32)"/></g><path d="M11.56 782.56h623.1v47.7H11.56z" stroke="#000" stroke-width="2" fill="#c1e4f7" fill-opacity=".48"/><g><use xlink:href="#I" transform="matrix(1,0,0,1,16.56383524153381,787.5638352415338) translate(33.833333333333314 32)"/><use xlink:href="#b" transform="matrix(1,0,0,1,16.56383524153381,787.5638352415338) translate(413.5 32)"/><use xlink:href="#c" transform="matrix(1,0,0,1,16.56383524153381,787.5638352415338) translate(507.94444444444446 32)"/></g><path d="M634.65 782.84h326.9v47.7h-326.9z" stroke="#000" stroke-width="2" fill="#c1e4f7" fill-opacity=".48"/><g><use xlink:href="#J" transform="matrix(1,0,0,1,639.6510517446759,787.8372963992324) translate(60.722222222222214 32)"/></g><path d="M11.56 831.84h623.1v47.7H11.56z" stroke="#000" stroke-width="2" fill="#c1e4f7" fill-opacity=".48"/><g><use xlink:href="#I" transform="matrix(1,0,0,1,16.56383524153381,836.8372963992322) translate(33.833333333333314 32)"/><use xlink:href="#b" transform="matrix(1,0,0,1,16.56383524153381,836.8372963992322) translate(413.5 32)"/><use xlink:href="#c" transform="matrix(1,0,0,1,16.56383524153381,836.8372963992322) translate(507.94444444444446 32)"/></g><path d="M11.56 879.24h623.1v47.7H11.56z" stroke="#000" stroke-width="2" fill="#c1e4f7" fill-opacity=".48"/><g><use xlink:href="#I" transform="matrix(1,0,0,1,16.56383524153381,884.2408457819481) translate(33.833333333333314 32)"/><use xlink:href="#b" transform="matrix(1,0,0,1,16.56383524153381,884.2408457819481) translate(413.5 32)"/><use xlink:href="#c" transform="matrix(1,0,0,1,16.56383524153381,884.2408457819481) translate(507.94444444444446 32)"/></g><path d="M11.56 927.24h623.1v47.7H11.56z" stroke="#000" stroke-width="2" fill="#ffbbb1" fill-opacity=".48"/><g><use xlink:href="#g" transform="matrix(1,0,0,1,16.56383524153381,932.240845781948) translate(135.61111111111111 32)"/></g><path d="M633.58 879.8h327.98v47.7H633.58z" stroke="#000" stroke-width="2" fill="#c1e4f7" fill-opacity=".48"/><g><use xlink:href="#J" transform="matrix(1,0,0,1,638.5848060694447,884.785731649668) translate(61.222222222222214 32)"/></g><path d="M634.65 927.5h326.9v47.72h-326.9z" stroke="#000" stroke-width="2" fill="#ffbbb1" fill-opacity=".48"/><g><use xlink:href="#K" transform="matrix(1,0,0,1,639.6510517446759,932.5143069396466) translate(15.7222222222222 32)"/></g><path d="M634.65 832.1h326.9v47.72h-326.9z" stroke="#000" stroke-width="2" fill="#c1e4f7" fill-opacity=".5"/><g><use xlink:href="#J" transform="matrix(1,0,0,1,639.6510517446759,837.1107575569308) translate(60.722222222222214 32)"/></g><path d="M11.45 1118.56h623.1v47.7H11.44z" stroke="#000" stroke-width="2" fill="#999" fill-opacity=".48"/><g><use xlink:href="#L" transform="matrix(1,0,0,1,16.44718851478018,1123.5638352415338) translate(194.99999999999997 32)"/></g><path d="M633.58 1119.65h327.98v47.7H633.58z" stroke="#000" stroke-width="2" fill="#999" fill-opacity=".48"/><g><use xlink:href="#M" transform="matrix(1,0,0,1,638.5848060694448,1124.6538474567112) translate(114.55555555555556 32)"/></g><defs><path d="M212-179c-10-28-35-45-73-45-59 0-87 40-87 99 0 60 29 101 89 101 43 0 62-24 78-52l27 14C228-24 195 4 139 4 59 4 22-46 18-125c-6-104 99-153 187-111 19 9 31 26 39 46" id="N"/><path d="M100-194c62-1 85 37 85 99 1 63-27 99-86 99S16-35 15-95c0-66 28-99 85-99zM99-20c44 1 53-31 53-75 0-43-8-75-51-75s-53 32-53 75 10 74 51 75" id="O"/><path d="M117-194c89-4 53 116 60 194h-32v-121c0-31-8-49-39-48C34-167 62-67 57 0H25l-1-190h30c1 10-1 24 2 32 11-22 29-35 61-36" id="P"/><path d="M108 0H70L1-190h34L89-25l56-165h34" id="Q"/><path d="M87 75C49 33 22-17 22-94c0-76 28-126 65-167h31c-38 41-64 92-64 168S80 34 118 75H87" id="R"/><path d="M110-160c48 1 74 30 74 79 0 53-28 85-80 85-65 0-83-55-86-122-5-90 50-162 133-122 14 7 22 21 27 39l-31 6c-5-40-67-38-82-6-9 19-15 44-15 74 11-20 30-34 60-33zm-7 138c34 0 49-23 49-58s-16-56-50-56c-29 0-50 16-49 49 1 36 15 65 50 65" id="S"/><path d="M155-56V0h-30v-56H8v-25l114-167h33v167h35v25h-35zm-30-156c-27 46-58 90-88 131h88v-131" id="T"/><path d="M141 0L90-78 38 0H4l68-98-65-92h35l48 74 47-74h35l-64 92 68 98h-35" id="U"/><path d="M126-127c33 6 58 20 58 59 0 88-139 92-164 29-3-8-5-16-6-25l32-3c6 27 21 44 54 44 32 0 52-15 52-46 0-38-36-46-79-43v-28c39 1 72-4 72-42 0-27-17-43-46-43-28 0-47 15-49 41l-32-3c6-42 35-63 81-64 48-1 79 21 79 65 0 36-21 52-52 59" id="V"/><path d="M33-261c38 41 65 92 65 168S71 34 33 75H2C39 34 66-17 66-93S39-220 2-261h31" id="W"/><path d="M68-38c1 34 0 65-14 84H32c9-13 17-26 17-46H33v-38h35" id="X"/><g id="a"><use transform="matrix(0.1111111111111111,0,0,0.1111111111111111,0,0)" xlink:href="#N"/><use transform="matrix(0.1111111111111111,0,0,0.1111111111111111,28.777777777777775,0)" xlink:href="#O"/><use transform="matrix(0.1111111111111111,0,0,0.1111111111111111,51,0)" xlink:href="#P"/><use transform="matrix(0.1111111111111111,0,0,0.1111111111111111,73.22222222222223,0)" xlink:href="#Q"/><use transform="matrix(0.1111111111111111,0,0,0.1111111111111111,93.22222222222223,0)" xlink:href="#R"/><use transform="matrix(0.1111111111111111,0,0,0.1111111111111111,106.44444444444446,0)" xlink:href="#S"/><use transform="matrix(0.1111111111111111,0,0,0.1111111111111111,128.66666666666669,0)" xlink:href="#T"/><use transform="matrix(0.1111111111111111,0,0,0.1111111111111111,150.8888888888889,0)" xlink:href="#U"/><use transform="matrix(0.1111111111111111,0,0,0.1111111111111111,170.8888888888889,0)" xlink:href="#V"/><use transform="matrix(0.1111111111111111,0,0,0.1111111111111111,193.11111111111114,0)" xlink:href="#U"/><use transform="matrix(0.1111111111111111,0,0,0.1111111111111111,213.11111111111114,0)" xlink:href="#V"/><use transform="matrix(0.1111111111111111,0,0,0.1111111111111111,235.33333333333337,0)" xlink:href="#U"/><use transform="matrix(0.1111111111111111,0,0,0.1111111111111111,255.33333333333337,0)" xlink:href="#V"/><use transform="matrix(0.1111111111111111,0,0,0.1111111111111111,277.5555555555556,0)" xlink:href="#W"/><use transform="matrix(0.1111111111111111,0,0,0.1111111111111111,290.7777777777778,0)" xlink:href="#X"/></g><path d="M185-189c-5-48-123-54-124 2 14 75 158 14 163 119 3 78-121 87-175 55-17-10-28-26-33-46l33-7c5 56 141 63 141-1 0-78-155-14-162-118-5-82 145-84 179-34 5 7 8 16 11 25" id="Y"/><path d="M18-150v-26h174v26H18zm0 90v-26h174v26H18" id="Z"/><path d="M27 0v-27h64v-190l-56 39v-29l58-41h29v221h61V0H27" id="aa"/><g id="b"><use transform="matrix(0.1111111111111111,0,0,0.1111111111111111,0,0)" xlink:href="#Y"/><use transform="matrix(0.1111111111111111,0,0,0.1111111111111111,26.666666666666664,0)" xlink:href="#Z"/><use transform="matrix(0.1111111111111111,0,0,0.1111111111111111,50,0)" xlink:href="#aa"/><use transform="matrix(0.1111111111111111,0,0,0.1111111111111111,72.22222222222223,0)" xlink:href="#X"/></g><path d="M30-248c87 1 191-15 191 75 0 78-77 80-158 76V0H30v-248zm33 125c57 0 124 11 124-50 0-59-68-47-124-48v98" id="ab"/><g id="c"><use transform="matrix(0.1111111111111111,0,0,0.1111111111111111,0,0)" xlink:href="#ab"/><use transform="matrix(0.1111111111111111,0,0,0.1111111111111111,26.666666666666664,0)" xlink:href="#Z"/><use transform="matrix(0.1111111111111111,0,0,0.1111111111111111,50,0)" xlink:href="#aa"/></g><g id="d"><use transform="matrix(0.11057764078863627,0,0,0.11057764078863627,0,0)" xlink:href="#N"/><use transform="matrix(0.11057764078863627,0,0,0.11057764078863627,28.639608964256794,0)" xlink:href="#O"/><use transform="matrix(0.11057764078863627,0,0,0.11057764078863627,50.75513712198405,0)" xlink:href="#P"/><use transform="matrix(0.11057764078863627,0,0,0.11057764078863627,72.8706652797113,0)" xlink:href="#Q"/><use transform="matrix(0.11057764078863627,0,0,0.11057764078863627,92.77464062166584,0)" xlink:href="#R"/><use transform="matrix(0.11057764078863627,0,0,0.11057764078863627,105.93337987551355,0)" xlink:href="#S"/><use transform="matrix(0.11057764078863627,0,0,0.11057764078863627,128.04890803324082,0)" xlink:href="#T"/><use transform="matrix(0.11057764078863627,0,0,0.11057764078863627,150.16443619096808,0)" xlink:href="#U"/><use transform="matrix(0.11057764078863627,0,0,0.11057764078863627,170.0684115329226,0)" xlink:href="#S"/><use transform="matrix(0.11057764078863627,0,0,0.11057764078863627,192.18393969064985,0)" xlink:href="#T"/><use transform="matrix(0.11057764078863627,0,0,0.11057764078863627,214.2994678483771,0)" xlink:href="#U"/><use transform="matrix(0.11057764078863627,0,0,0.11057764078863627,234.20344319033163,0)" xlink:href="#V"/><use transform="matrix(0.11057764078863627,0,0,0.11057764078863627,256.3189713480589,0)" xlink:href="#U"/><use transform="matrix(0.11057764078863627,0,0,0.11057764078863627,276.22294669001343,0)" xlink:href="#V"/><use transform="matrix(0.11057764078863627,0,0,0.11057764078863627,298.3384748477407,0)" xlink:href="#W"/><use transform="matrix(0.11057764078863627,0,0,0.11057764078863627,311.49721410158844,0)" xlink:href="#X"/></g><g id="e"><use transform="matrix(0.11057764078863627,0,0,0.11057764078863627,0,0)" xlink:href="#Y"/><use transform="matrix(0.11057764078863627,0,0,0.11057764078863627,26.538633789272705,0)" xlink:href="#Z"/><use transform="matrix(0.11057764078863627,0,0,0.11057764078863627,49.75993835488632,0)" xlink:href="#aa"/><use transform="matrix(0.11057764078863627,0,0,0.11057764078863627,71.87546651261357,0)" xlink:href="#X"/></g><g id="f"><use transform="matrix(0.11057764078863627,0,0,0.11057764078863627,0,0)" xlink:href="#ab"/><use transform="matrix(0.11057764078863627,0,0,0.11057764078863627,26.538633789272705,0)" xlink:href="#Z"/><use transform="matrix(0.11057764078863627,0,0,0.11057764078863627,49.75993835488632,0)" xlink:href="#aa"/></g><path d="M240 0l2-218c-23 76-54 145-80 218h-23L58-218 59 0H30v-248h44l77 211c21-75 51-140 76-211h43V0h-30" id="ac"/><path d="M141-36C126-15 110 5 73 4 37 3 15-17 15-53c-1-64 63-63 125-63 3-35-9-54-41-54-24 1-41 7-42 31l-33-3c5-37 33-52 76-52 45 0 72 20 72 64v82c-1 20 7 32 28 27v20c-31 9-61-2-59-35zM48-53c0 20 12 33 32 33 41-3 63-29 60-74-43 2-92-5-92 41" id="ad"/><path d="M16-82v-28h88v28H16" id="ae"/><path d="M24 0v-261h32V0H24" id="af"/><path d="M101-251c82-7 93 87 43 132L82-64C71-53 59-42 53-27h129V0H18c2-99 128-94 128-182 0-28-16-43-45-43s-46 15-49 41l-32-3c6-41 34-60 81-64" id="ag"/><g id="g"><use transform="matrix(0.1111111111111111,0,0,0.1111111111111111,0,0)" xlink:href="#ac"/><use transform="matrix(0.1111111111111111,0,0,0.1111111111111111,33.22222222222222,0)" xlink:href="#ad"/><use transform="matrix(0.1111111111111111,0,0,0.1111111111111111,55.44444444444444,0)" xlink:href="#U"/><use transform="matrix(0.1111111111111111,0,0,0.1111111111111111,75.44444444444444,0)" xlink:href="#ae"/><use transform="matrix(0.1111111111111111,0,0,0.1111111111111111,88.66666666666666,0)" xlink:href="#ab"/><use transform="matrix(0.1111111111111111,0,0,0.1111111111111111,115.33333333333333,0)" xlink:href="#O"/><use transform="matrix(0.1111111111111111,0,0,0.1111111111111111,137.55555555555554,0)" xlink:href="#O"/><use transform="matrix(0.1111111111111111,0,0,0.1111111111111111,159.77777777777777,0)" xlink:href="#af"/><use transform="matrix(0.1111111111111111,0,0,0.1111111111111111,168.55555555555554,0)" xlink:href="#R"/><use transform="matrix(0.1111111111111111,0,0,0.1111111111111111,181.77777777777777,0)" xlink:href="#ag"/><use transform="matrix(0.1111111111111111,0,0,0.1111111111111111,204,0)" xlink:href="#U"/><use transform="matrix(0.1111111111111111,0,0,0.1111111111111111,224,0)" xlink:href="#ag"/><use transform="matrix(0.1111111111111111,0,0,0.1111111111111111,246.2222222222222,0)" xlink:href="#X"/><use transform="matrix(0.1111111111111111,0,0,0.1111111111111111,257.3333333333333,0)" xlink:href="#Y"/><use transform="matrix(0.1111111111111111,0,0,0.1111111111111111,284,0)" xlink:href="#Z"/><use transform="matrix(0.1111111111111111,0,0,0.1111111111111111,307.3333333333333,0)" xlink:href="#ag"/><use transform="matrix(0.1111111111111111,0,0,0.1111111111111111,329.55555555555554,0)" xlink:href="#W"/></g><path d="M134-131c28 9 52 24 51 62-1 50-34 73-85 73S17-19 16-69c0-36 21-54 49-61-75-25-45-126 34-121 46 3 78 18 79 63 0 33-17 51-44 57zm-34-11c31 1 46-15 46-44 0-28-17-43-47-42-29 0-46 13-45 42 1 28 16 44 46 44zm1 122c35 0 51-18 51-52 0-30-18-46-53-46-33 0-51 17-51 47 0 34 19 51 53 51" id="ah"/><g id="h"><use transform="matrix(0.1111111111111111,0,0,0.1111111111111111,0,0)" xlink:href="#N"/><use transform="matrix(0.1111111111111111,0,0,0.1111111111111111,28.777777777777775,0)" xlink:href="#O"/><use transform="matrix(0.1111111111111111,0,0,0.1111111111111111,51,0)" xlink:href="#P"/><use transform="matrix(0.1111111111111111,0,0,0.1111111111111111,73.22222222222223,0)" xlink:href="#Q"/><use transform="matrix(0.1111111111111111,0,0,0.1111111111111111,93.22222222222223,0)" xlink:href="#R"/><use transform="matrix(0.1111111111111111,0,0,0.1111111111111111,106.44444444444446,0)" xlink:href="#aa"/><use transform="matrix(0.1111111111111111,0,0,0.1111111111111111,128.66666666666669,0)" xlink:href="#ag"/><use transform="matrix(0.1111111111111111,0,0,0.1111111111111111,150.8888888888889,0)" xlink:href="#ah"/><use transform="matrix(0.1111111111111111,0,0,0.1111111111111111,173.11111111111114,0)" xlink:href="#U"/><use transform="matrix(0.1111111111111111,0,0,0.1111111111111111,193.11111111111114,0)" xlink:href="#S"/><use transform="matrix(0.1111111111111111,0,0,0.1111111111111111,215.33333333333337,0)" xlink:href="#T"/><use transform="matrix(0.1111111111111111,0,0,0.1111111111111111,237.5555555555556,0)" xlink:href="#U"/><use transform="matrix(0.1111111111111111,0,0,0.1111111111111111,257.5555555555556,0)" xlink:href="#V"/><use transform="matrix(0.1111111111111111,0,0,0.1111111111111111,279.7777777777778,0)" xlink:href="#U"/><use transform="matrix(0.1111111111111111,0,0,0.1111111111111111,299.7777777777778,0)" xlink:href="#V"/><use transform="matrix(0.1111111111111111,0,0,0.1111111111111111,322.00000000000006,0)" xlink:href="#W"/><use transform="matrix(0.1111111111111111,0,0,0.1111111111111111,335.2222222222223,0)" xlink:href="#X"/></g><g id="i"><use transform="matrix(0.1111111111111111,0,0,0.1111111111111111,0,0)" xlink:href="#N"/><use transform="matrix(0.1111111111111111,0,0,0.1111111111111111,28.777777777777775,0)" xlink:href="#O"/><use transform="matrix(0.1111111111111111,0,0,0.1111111111111111,51,0)" xlink:href="#P"/><use transform="matrix(0.1111111111111111,0,0,0.1111111111111111,73.22222222222223,0)" xlink:href="#Q"/><use transform="matrix(0.1111111111111111,0,0,0.1111111111111111,93.22222222222223,0)" xlink:href="#R"/><use transform="matrix(0.1111111111111111,0,0,0.1111111111111111,106.44444444444446,0)" xlink:href="#aa"/><use transform="matrix(0.1111111111111111,0,0,0.1111111111111111,128.66666666666669,0)" xlink:href="#ag"/><use transform="matrix(0.1111111111111111,0,0,0.1111111111111111,150.8888888888889,0)" xlink:href="#ah"/><use transform="matrix(0.1111111111111111,0,0,0.1111111111111111,173.11111111111114,0)" xlink:href="#U"/><use transform="matrix(0.1111111111111111,0,0,0.1111111111111111,193.11111111111114,0)" xlink:href="#aa"/><use transform="matrix(0.1111111111111111,0,0,0.1111111111111111,215.33333333333337,0)" xlink:href="#ag"/><use transform="matrix(0.1111111111111111,0,0,0.1111111111111111,237.5555555555556,0)" xlink:href="#ah"/><use transform="matrix(0.1111111111111111,0,0,0.1111111111111111,259.7777777777778,0)" xlink:href="#U"/><use transform="matrix(0.1111111111111111,0,0,0.1111111111111111,279.7777777777778,0)" xlink:href="#V"/><use transform="matrix(0.1111111111111111,0,0,0.1111111111111111,302.00000000000006,0)" xlink:href="#U"/><use transform="matrix(0.1111111111111111,0,0,0.1111111111111111,322.00000000000006,0)" xlink:href="#V"/><use transform="matrix(0.1111111111111111,0,0,0.1111111111111111,344.2222222222223,0)" xlink:href="#W"/><use transform="matrix(0.1111111111111111,0,0,0.1111111111111111,357.4444444444445,0)" xlink:href="#X"/></g><path d="M54-142c48-35 137-8 131 61C196 18 31 33 14-55l32-4c7 23 22 37 52 37 35-1 51-22 54-58 4-55-73-65-99-34H22l8-134h141v27H59" id="ai"/><g id="j"><use transform="matrix(0.1111111111111111,0,0,0.1111111111111111,0,0)" xlink:href="#N"/><use transform="matrix(0.1111111111111111,0,0,0.1111111111111111,28.777777777777775,0)" xlink:href="#O"/><use transform="matrix(0.1111111111111111,0,0,0.1111111111111111,51,0)" xlink:href="#P"/><use transform="matrix(0.1111111111111111,0,0,0.1111111111111111,73.22222222222223,0)" xlink:href="#Q"/><use transform="matrix(0.1111111111111111,0,0,0.1111111111111111,93.22222222222223,0)" xlink:href="#R"/><use transform="matrix(0.1111111111111111,0,0,0.1111111111111111,106.44444444444446,0)" xlink:href="#ag"/><use transform="matrix(0.1111111111111111,0,0,0.1111111111111111,128.66666666666669,0)" xlink:href="#ai"/><use transform="matrix(0.1111111111111111,0,0,0.1111111111111111,150.8888888888889,0)" xlink:href="#S"/><use transform="matrix(0.1111111111111111,0,0,0.1111111111111111,173.11111111111114,0)" xlink:href="#U"/><use transform="matrix(0.1111111111111111,0,0,0.1111111111111111,193.11111111111114,0)" xlink:href="#aa"/><use transform="matrix(0.1111111111111111,0,0,0.1111111111111111,215.33333333333337,0)" xlink:href="#ag"/><use transform="matrix(0.1111111111111111,0,0,0.1111111111111111,237.5555555555556,0)" xlink:href="#ah"/><use transform="matrix(0.1111111111111111,0,0,0.1111111111111111,259.7777777777778,0)" xlink:href="#U"/><use transform="matrix(0.1111111111111111,0,0,0.1111111111111111,279.7777777777778,0)" xlink:href="#V"/><use transform="matrix(0.1111111111111111,0,0,0.1111111111111111,302.00000000000006,0)" xlink:href="#U"/><use transform="matrix(0.1111111111111111,0,0,0.1111111111111111,322.00000000000006,0)" xlink:href="#V"/><use transform="matrix(0.1111111111111111,0,0,0.1111111111111111,344.2222222222223,0)" xlink:href="#W"/><use transform="matrix(0.1111111111111111,0,0,0.1111111111111111,357.4444444444445,0)" xlink:href="#X"/></g><g id="k"><use transform="matrix(0.11057764078863627,0,0,0.11057764078863627,0,0)" xlink:href="#S"/><use transform="matrix(0.11057764078863627,0,0,0.11057764078863627,22.115528157727255,0)" xlink:href="#T"/><use transform="matrix(0.11057764078863627,0,0,0.11057764078863627,44.23105631545451,0)" xlink:href="#U"/><use transform="matrix(0.11057764078863627,0,0,0.11057764078863627,64.13503165740903,0)" xlink:href="#ag"/><use transform="matrix(0.11057764078863627,0,0,0.11057764078863627,86.25055981513628,0)" xlink:href="#ag"/><use transform="matrix(0.11057764078863627,0,0,0.11057764078863627,108.36608797286354,0)" xlink:href="#T"/><use transform="matrix(0.11057764078863627,0,0,0.11057764078863627,130.4816161305908,0)" xlink:href="#U"/><use transform="matrix(0.11057764078863627,0,0,0.11057764078863627,150.38559147254531,0)" xlink:href="#ag"/><use transform="matrix(0.11057764078863627,0,0,0.11057764078863627,172.50111963027257,0)" xlink:href="#ag"/><use transform="matrix(0.11057764078863627,0,0,0.11057764078863627,194.61664778799982,0)" xlink:href="#T"/></g><g id="l"><use transform="matrix(0.1111111111111111,0,0,0.1111111111111111,0,0)" xlink:href="#S"/><use transform="matrix(0.1111111111111111,0,0,0.1111111111111111,22.22222222222222,0)" xlink:href="#T"/><use transform="matrix(0.1111111111111111,0,0,0.1111111111111111,44.44444444444444,0)" xlink:href="#U"/><use transform="matrix(0.1111111111111111,0,0,0.1111111111111111,64.44444444444444,0)" xlink:href="#aa"/><use transform="matrix(0.1111111111111111,0,0,0.1111111111111111,83.66666666666666,0)" xlink:href="#aa"/><use transform="matrix(0.1111111111111111,0,0,0.1111111111111111,105.88888888888889,0)" xlink:href="#ag"/><use transform="matrix(0.1111111111111111,0,0,0.1111111111111111,128.11111111111111,0)" xlink:href="#U"/><use transform="matrix(0.1111111111111111,0,0,0.1111111111111111,148.11111111111111,0)" xlink:href="#aa"/><use transform="matrix(0.1111111111111111,0,0,0.1111111111111111,167.33333333333334,0)" xlink:href="#aa"/><use transform="matrix(0.1111111111111111,0,0,0.1111111111111111,189.55555555555557,0)" xlink:href="#ag"/></g><g id="m"><use transform="matrix(0.1111111111111111,0,0,0.1111111111111111,0,0)" xlink:href="#aa"/><use transform="matrix(0.1111111111111111,0,0,0.1111111111111111,22.22222222222222,0)" xlink:href="#ag"/><use transform="matrix(0.1111111111111111,0,0,0.1111111111111111,44.44444444444444,0)" xlink:href="#ah"/><use transform="matrix(0.1111111111111111,0,0,0.1111111111111111,66.66666666666666,0)" xlink:href="#U"/><use transform="matrix(0.1111111111111111,0,0,0.1111111111111111,86.66666666666666,0)" xlink:href="#aa"/><use transform="matrix(0.1111111111111111,0,0,0.1111111111111111,105.88888888888889,0)" xlink:href="#aa"/><use transform="matrix(0.1111111111111111,0,0,0.1111111111111111,128.11111111111111,0)" xlink:href="#ag"/><use transform="matrix(0.1111111111111111,0,0,0.1111111111111111,150.33333333333334,0)" xlink:href="#U"/><use transform="matrix(0.1111111111111111,0,0,0.1111111111111111,170.33333333333334,0)" xlink:href="#aa"/><use transform="matrix(0.1111111111111111,0,0,0.1111111111111111,189.55555555555557,0)" xlink:href="#aa"/><use transform="matrix(0.1111111111111111,0,0,0.1111111111111111,211.7777777777778,0)" xlink:href="#ag"/></g><g id="n"><use transform="matrix(0.1111111111111111,0,0,0.1111111111111111,0,0)" xlink:href="#aa"/><use transform="matrix(0.1111111111111111,0,0,0.1111111111111111,22.22222222222222,0)" xlink:href="#ag"/><use transform="matrix(0.1111111111111111,0,0,0.1111111111111111,44.44444444444444,0)" xlink:href="#ah"/><use transform="matrix(0.1111111111111111,0,0,0.1111111111111111,66.66666666666666,0)" xlink:href="#U"/><use transform="matrix(0.1111111111111111,0,0,0.1111111111111111,86.66666666666666,0)" xlink:href="#ai"/><use transform="matrix(0.1111111111111111,0,0,0.1111111111111111,108.88888888888889,0)" xlink:href="#S"/><use transform="matrix(0.1111111111111111,0,0,0.1111111111111111,131.11111111111111,0)" xlink:href="#U"/><use transform="matrix(0.1111111111111111,0,0,0.1111111111111111,151.11111111111111,0)" xlink:href="#ai"/><use transform="matrix(0.1111111111111111,0,0,0.1111111111111111,173.33333333333334,0)" xlink:href="#S"/></g><g id="o"><use transform="matrix(0.1111111111111111,0,0,0.1111111111111111,0,0)" xlink:href="#ag"/><use transform="matrix(0.1111111111111111,0,0,0.1111111111111111,22.22222222222222,0)" xlink:href="#ai"/><use transform="matrix(0.1111111111111111,0,0,0.1111111111111111,44.44444444444444,0)" xlink:href="#S"/><use transform="matrix(0.1111111111111111,0,0,0.1111111111111111,66.66666666666666,0)" xlink:href="#U"/><use transform="matrix(0.1111111111111111,0,0,0.1111111111111111,86.66666666666666,0)" xlink:href="#ai"/><use transform="matrix(0.1111111111111111,0,0,0.1111111111111111,108.88888888888889,0)" xlink:href="#S"/><use transform="matrix(0.1111111111111111,0,0,0.1111111111111111,131.11111111111111,0)" xlink:href="#U"/><use transform="matrix(0.1111111111111111,0,0,0.1111111111111111,151.11111111111111,0)" xlink:href="#ai"/><use transform="matrix(0.1111111111111111,0,0,0.1111111111111111,173.33333333333334,0)" xlink:href="#S"/></g><path d="M33 0v-248h34V0H33" id="aj"/><path d="M115-194c55 1 70 41 70 98S169 2 115 4C84 4 66-9 55-30l1 105H24l-1-265h31l2 30c10-21 28-34 59-34zm-8 174c40 0 45-34 45-75s-6-73-45-74c-42 0-51 32-51 76 0 43 10 73 51 73" id="ak"/><path d="M84 4C-5 8 30-112 23-190h32v120c0 31 7 50 39 49 72-2 45-101 50-169h31l1 190h-30c-1-10 1-25-2-33-11 22-28 36-60 37" id="al"/><path d="M59-47c-2 24 18 29 38 22v24C64 9 27 4 27-40v-127H5v-23h24l9-43h21v43h35v23H59v120" id="am"/><g id="p"><use transform="matrix(0.1111111111111111,0,0,0.1111111111111111,0,0)" xlink:href="#aj"/><use transform="matrix(0.1111111111111111,0,0,0.1111111111111111,11.11111111111111,0)" xlink:href="#P"/><use transform="matrix(0.1111111111111111,0,0,0.1111111111111111,33.33333333333333,0)" xlink:href="#ak"/><use transform="matrix(0.1111111111111111,0,0,0.1111111111111111,55.55555555555555,0)" xlink:href="#al"/><use transform="matrix(0.1111111111111111,0,0,0.1111111111111111,77.77777777777777,0)" xlink:href="#am"/></g><g id="q"><use transform="matrix(0.1111111111111111,0,0,0.1111111111111111,0,0)" xlink:href="#R"/><use transform="matrix(0.1111111111111111,0,0,0.1111111111111111,13.222222222222221,0)" xlink:href="#V"/><use transform="matrix(0.1111111111111111,0,0,0.1111111111111111,35.44444444444444,0)" xlink:href="#U"/><use transform="matrix(0.1111111111111111,0,0,0.1111111111111111,55.44444444444444,0)" xlink:href="#ag"/><use transform="matrix(0.1111111111111111,0,0,0.1111111111111111,77.66666666666666,0)" xlink:href="#ag"/><use transform="matrix(0.1111111111111111,0,0,0.1111111111111111,99.88888888888889,0)" xlink:href="#T"/><use transform="matrix(0.1111111111111111,0,0,0.1111111111111111,122.1111111111111,0)" xlink:href="#U"/><use transform="matrix(0.1111111111111111,0,0,0.1111111111111111,142.11111111111111,0)" xlink:href="#ag"/><use transform="matrix(0.1111111111111111,0,0,0.1111111111111111,164.33333333333334,0)" xlink:href="#ag"/><use transform="matrix(0.1111111111111111,0,0,0.1111111111111111,186.55555555555557,0)" xlink:href="#T"/><use transform="matrix(0.1111111111111111,0,0,0.1111111111111111,208.7777777777778,0)" xlink:href="#W"/></g><path d="M140-251c81 0 123 46 123 126C263-46 219 4 140 4 59 4 17-45 17-125s42-126 123-126zm0 227c63 0 89-41 89-101s-29-99-89-99c-61 0-89 39-89 99S79-25 140-24" id="an"/><g id="r"><use transform="matrix(0.1111111111111111,0,0,0.1111111111111111,0,0)" xlink:href="#an"/><use transform="matrix(0.1111111111111111,0,0,0.1111111111111111,31.11111111111111,0)" xlink:href="#al"/><use transform="matrix(0.1111111111111111,0,0,0.1111111111111111,53.33333333333333,0)" xlink:href="#am"/><use transform="matrix(0.1111111111111111,0,0,0.1111111111111111,64.44444444444444,0)" xlink:href="#ak"/><use transform="matrix(0.1111111111111111,0,0,0.1111111111111111,86.66666666666666,0)" xlink:href="#al"/><use transform="matrix(0.1111111111111111,0,0,0.1111111111111111,108.88888888888889,0)" xlink:href="#am"/></g><path d="M24-231v-30h32v30H24zM24 0v-190h32V0H24" id="ao"/><path d="M9 0v-24l116-142H16v-24h144v24L44-24h123V0H9" id="ap"/><path d="M100-194c63 0 86 42 84 106H49c0 40 14 67 53 68 26 1 43-12 49-29l28 8c-11 28-37 45-77 45C44 4 14-33 15-96c1-61 26-98 85-98zm52 81c6-60-76-77-97-28-3 7-6 17-6 28h103" id="aq"/><g id="s"><use transform="matrix(0.1111111111111111,0,0,0.1111111111111111,0,0)" xlink:href="#Y"/><use transform="matrix(0.1111111111111111,0,0,0.1111111111111111,26.666666666666664,0)" xlink:href="#ao"/><use transform="matrix(0.1111111111111111,0,0,0.1111111111111111,35.44444444444444,0)" xlink:href="#ap"/><use transform="matrix(0.1111111111111111,0,0,0.1111111111111111,55.44444444444444,0)" xlink:href="#aq"/></g><g id="t"><use transform="matrix(0.1111111111111111,0,0,0.1111111111111111,0,0)" xlink:href="#S"/><use transform="matrix(0.1111111111111111,0,0,0.1111111111111111,22.22222222222222,0)" xlink:href="#T"/><use transform="matrix(0.1111111111111111,0,0,0.1111111111111111,44.44444444444444,0)" xlink:href="#U"/><use transform="matrix(0.1111111111111111,0,0,0.1111111111111111,64.44444444444444,0)" xlink:href="#ag"/><use transform="matrix(0.1111111111111111,0,0,0.1111111111111111,86.66666666666666,0)" xlink:href="#ag"/><use transform="matrix(0.1111111111111111,0,0,0.1111111111111111,108.88888888888889,0)" xlink:href="#T"/><use transform="matrix(0.1111111111111111,0,0,0.1111111111111111,131.11111111111111,0)" xlink:href="#U"/><use transform="matrix(0.1111111111111111,0,0,0.1111111111111111,151.11111111111111,0)" xlink:href="#ag"/><use transform="matrix(0.1111111111111111,0,0,0.1111111111111111,173.33333333333334,0)" xlink:href="#ag"/><use transform="matrix(0.1111111111111111,0,0,0.1111111111111111,195.55555555555557,0)" xlink:href="#T"/></g><g id="u"><use transform="matrix(0.1111111111111111,0,0,0.1111111111111111,0,0)" xlink:href="#N"/><use transform="matrix(0.1111111111111111,0,0,0.1111111111111111,28.777777777777775,0)" xlink:href="#O"/><use transform="matrix(0.1111111111111111,0,0,0.1111111111111111,51,0)" xlink:href="#P"/><use transform="matrix(0.1111111111111111,0,0,0.1111111111111111,73.22222222222223,0)" xlink:href="#Q"/><use transform="matrix(0.1111111111111111,0,0,0.1111111111111111,93.22222222222223,0)" xlink:href="#R"/><use transform="matrix(0.1111111111111111,0,0,0.1111111111111111,106.44444444444446,0)" xlink:href="#ag"/><use transform="matrix(0.1111111111111111,0,0,0.1111111111111111,128.66666666666669,0)" xlink:href="#ai"/><use transform="matrix(0.1111111111111111,0,0,0.1111111111111111,150.8888888888889,0)" xlink:href="#S"/><use transform="matrix(0.1111111111111111,0,0,0.1111111111111111,173.11111111111114,0)" xlink:href="#U"/><use transform="matrix(0.1111111111111111,0,0,0.1111111111111111,193.11111111111114,0)" xlink:href="#ag"/><use transform="matrix(0.1111111111111111,0,0,0.1111111111111111,215.33333333333337,0)" xlink:href="#ai"/><use transform="matrix(0.1111111111111111,0,0,0.1111111111111111,237.5555555555556,0)" xlink:href="#S"/><use transform="matrix(0.1111111111111111,0,0,0.1111111111111111,259.7777777777778,0)" xlink:href="#U"/><use transform="matrix(0.1111111111111111,0,0,0.1111111111111111,279.7777777777778,0)" xlink:href="#V"/><use transform="matrix(0.1111111111111111,0,0,0.1111111111111111,302.00000000000006,0)" xlink:href="#U"/><use transform="matrix(0.1111111111111111,0,0,0.1111111111111111,322.00000000000006,0)" xlink:href="#V"/><use transform="matrix(0.1111111111111111,0,0,0.1111111111111111,344.2222222222223,0)" xlink:href="#W"/><use transform="matrix(0.1111111111111111,0,0,0.1111111111111111,357.4444444444445,0)" xlink:href="#X"/></g><path d="M30 0v-248h33v221h125V0H30" id="ar"/><path d="M114-163C36-179 61-72 57 0H25l-1-190h30c1 12-1 29 2 39 6-27 23-49 58-41v29" id="as"/><path d="M101-251c68 0 85 55 85 127S166 4 100 4C33 4 14-52 14-124c0-73 17-127 87-127zm-1 229c47 0 54-49 54-102s-4-102-53-102c-51 0-55 48-55 102 0 53 5 102 54 102" id="at"/><g id="v"><use transform="matrix(0.1111111111111111,0,0,0.1111111111111111,0,0)" xlink:href="#ar"/><use transform="matrix(0.1111111111111111,0,0,0.1111111111111111,22.22222222222222,0)" xlink:href="#ao"/><use transform="matrix(0.1111111111111111,0,0,0.1111111111111111,31,0)" xlink:href="#P"/><use transform="matrix(0.1111111111111111,0,0,0.1111111111111111,53.22222222222222,0)" xlink:href="#aq"/><use transform="matrix(0.1111111111111111,0,0,0.1111111111111111,75.44444444444444,0)" xlink:href="#ad"/><use transform="matrix(0.1111111111111111,0,0,0.1111111111111111,97.66666666666666,0)" xlink:href="#as"/><use transform="matrix(0.1111111111111111,0,0,0.1111111111111111,110.88888888888889,0)" xlink:href="#R"/><use transform="matrix(0.1111111111111111,0,0,0.1111111111111111,124.1111111111111,0)" xlink:href="#ag"/><use transform="matrix(0.1111111111111111,0,0,0.1111111111111111,146.33333333333334,0)" xlink:href="#ai"/><use transform="matrix(0.1111111111111111,0,0,0.1111111111111111,168.55555555555557,0)" xlink:href="#at"/><use transform="matrix(0.1111111111111111,0,0,0.1111111111111111,190.7777777777778,0)" xlink:href="#ah"/><use transform="matrix(0.1111111111111111,0,0,0.1111111111111111,213.00000000000003,0)" xlink:href="#ah"/><use transform="matrix(0.1111111111111111,0,0,0.1111111111111111,235.22222222222226,0)" xlink:href="#X"/></g><path d="M99-251c64 0 84 50 84 122C183-37 130 33 47-8c-14-7-20-23-25-40l30-5c6 39 69 39 84 7 9-19 16-44 16-74-10 22-31 35-62 35-49 0-73-33-73-83 0-54 28-83 82-83zm-1 141c31-1 51-18 51-49 0-36-14-67-51-67-34 0-49 23-49 58 0 34 15 58 49 58" id="au"/><g id="w"><use transform="matrix(0.1111111111111111,0,0,0.1111111111111111,0,0)" xlink:href="#T"/><use transform="matrix(0.1111111111111111,0,0,0.1111111111111111,22.22222222222222,0)" xlink:href="#at"/><use transform="matrix(0.1111111111111111,0,0,0.1111111111111111,44.44444444444444,0)" xlink:href="#au"/><use transform="matrix(0.1111111111111111,0,0,0.1111111111111111,66.66666666666666,0)" xlink:href="#S"/><use transform="matrix(0.1111111111111111,0,0,0.1111111111111111,88.88888888888889,0)" xlink:href="#W"/></g><path fill="#fd3f3f" d="M87 75C49 33 22-17 22-94c0-76 28-126 65-167h31c-38 41-64 92-64 168S80 34 118 75H87" id="av"/><path fill="#fd3f3f" d="M27 0v-27h64v-190l-56 39v-29l58-41h29v221h61V0H27" id="aw"/><path fill="#fd3f3f" d="M101-251c68 0 85 55 85 127S166 4 100 4C33 4 14-52 14-124c0-73 17-127 87-127zm-1 229c47 0 54-49 54-102s-4-102-53-102c-51 0-55 48-55 102 0 53 5 102 54 102" id="ax"/><path fill="#fd3f3f" d="M101-251c82-7 93 87 43 132L82-64C71-53 59-42 53-27h129V0H18c2-99 128-94 128-182 0-28-16-43-45-43s-46 15-49 41l-32-3c6-41 34-60 81-64" id="ay"/><path fill="#fd3f3f" d="M240 0l2-218c-23 76-54 145-80 218h-23L58-218 59 0H30v-248h44l77 211c21-75 51-140 76-211h43V0h-30" id="az"/><path fill="#fd3f3f" d="M33-261c38 41 65 92 65 168S71 34 33 75H2C39 34 66-17 66-93S39-220 2-261h31" id="aA"/><g id="x"><use transform="matrix(0.1111111111111111,0,0,0.1111111111111111,0,0)" xlink:href="#av"/><use transform="matrix(0.1111111111111111,0,0,0.1111111111111111,13.222222222222221,0)" xlink:href="#aw"/><use transform="matrix(0.1111111111111111,0,0,0.1111111111111111,35.44444444444444,0)" xlink:href="#ax"/><use transform="matrix(0.1111111111111111,0,0,0.1111111111111111,57.666666666666664,0)" xlink:href="#ay"/><use transform="matrix(0.1111111111111111,0,0,0.1111111111111111,79.88888888888889,0)" xlink:href="#az"/><use transform="matrix(0.1111111111111111,0,0,0.1111111111111111,113.11111111111111,0)" xlink:href="#aA"/></g><path d="M30-248c118-7 216 8 213 122C240-48 200 0 122 0H30v-248zM63-27c89 8 146-16 146-99s-60-101-146-95v194" id="aB"/><path d="M33 0v-38h34V0H33" id="aC"/><g id="y"><use transform="matrix(0.1111111111111111,0,0,0.1111111111111111,0,0)" xlink:href="#aB"/><use transform="matrix(0.1111111111111111,0,0,0.1111111111111111,28.777777777777775,0)" xlink:href="#as"/><use transform="matrix(0.1111111111111111,0,0,0.1111111111111111,42,0)" xlink:href="#O"/><use transform="matrix(0.1111111111111111,0,0,0.1111111111111111,64.22222222222223,0)" xlink:href="#ak"/><use transform="matrix(0.1111111111111111,0,0,0.1111111111111111,86.44444444444446,0)" xlink:href="#O"/><use transform="matrix(0.1111111111111111,0,0,0.1111111111111111,108.66666666666669,0)" xlink:href="#al"/><use transform="matrix(0.1111111111111111,0,0,0.1111111111111111,130.8888888888889,0)" xlink:href="#am"/><use transform="matrix(0.1111111111111111,0,0,0.1111111111111111,142.00000000000003,0)" xlink:href="#R"/><use transform="matrix(0.1111111111111111,0,0,0.1111111111111111,155.22222222222226,0)" xlink:href="#at"/><use transform="matrix(0.1111111111111111,0,0,0.1111111111111111,177.44444444444449,0)" xlink:href="#aC"/><use transform="matrix(0.1111111111111111,0,0,0.1111111111111111,188.5555555555556,0)" xlink:href="#ai"/><use transform="matrix(0.1111111111111111,0,0,0.1111111111111111,210.77777777777783,0)" xlink:href="#W"/></g><g id="z"><use transform="matrix(0.1111111111111111,0,0,0.1111111111111111,0,0)" xlink:href="#ar"/><use transform="matrix(0.1111111111111111,0,0,0.1111111111111111,22.22222222222222,0)" xlink:href="#ao"/><use transform="matrix(0.1111111111111111,0,0,0.1111111111111111,31,0)" xlink:href="#P"/><use transform="matrix(0.1111111111111111,0,0,0.1111111111111111,53.22222222222222,0)" xlink:href="#aq"/><use transform="matrix(0.1111111111111111,0,0,0.1111111111111111,75.44444444444444,0)" xlink:href="#ad"/><use transform="matrix(0.1111111111111111,0,0,0.1111111111111111,97.66666666666666,0)" xlink:href="#as"/><use transform="matrix(0.1111111111111111,0,0,0.1111111111111111,110.88888888888889,0)" xlink:href="#R"/><use transform="matrix(0.1111111111111111,0,0,0.1111111111111111,124.1111111111111,0)" xlink:href="#T"/><use transform="matrix(0.1111111111111111,0,0,0.1111111111111111,146.33333333333334,0)" xlink:href="#at"/><use transform="matrix(0.1111111111111111,0,0,0.1111111111111111,168.55555555555557,0)" xlink:href="#au"/><use transform="matrix(0.1111111111111111,0,0,0.1111111111111111,190.7777777777778,0)" xlink:href="#S"/><use transform="matrix(0.1111111111111111,0,0,0.1111111111111111,213.00000000000003,0)" xlink:href="#X"/></g><g id="A"><use transform="matrix(0.1111111111111111,0,0,0.1111111111111111,0,0)" xlink:href="#T"/><use transform="matrix(0.1111111111111111,0,0,0.1111111111111111,22.22222222222222,0)" xlink:href="#at"/><use transform="matrix(0.1111111111111111,0,0,0.1111111111111111,44.44444444444444,0)" xlink:href="#au"/><use transform="matrix(0.1111111111111111,0,0,0.1111111111111111,66.66666666666666,0)" xlink:href="#S"/><use transform="matrix(0.1111111111111111,0,0,0.1111111111111111,88.88888888888889,0)" xlink:href="#W"/></g><path fill="#fd3f3f" d="M110-160c48 1 74 30 74 79 0 53-28 85-80 85-65 0-83-55-86-122-5-90 50-162 133-122 14 7 22 21 27 39l-31 6c-5-40-67-38-82-6-9 19-15 44-15 74 11-20 30-34 60-33zm-7 138c34 0 49-23 49-58s-16-56-50-56c-29 0-50 16-49 49 1 36 15 65 50 65" id="aD"/><g id="B"><use transform="matrix(0.1111111111111111,0,0,0.1111111111111111,0,0)" xlink:href="#av"/><use transform="matrix(0.1111111111111111,0,0,0.1111111111111111,13.222222222222221,0)" xlink:href="#aw"/><use transform="matrix(0.1111111111111111,0,0,0.1111111111111111,35.44444444444444,0)" xlink:href="#aD"/><use transform="matrix(0.1111111111111111,0,0,0.1111111111111111,57.666666666666664,0)" xlink:href="#az"/><use transform="matrix(0.1111111111111111,0,0,0.1111111111111111,90.88888888888889,0)" xlink:href="#aA"/></g><g id="C"><use transform="matrix(0.1111111111111111,0,0,0.1111111111111111,0,0)" xlink:href="#ag"/><use transform="matrix(0.1111111111111111,0,0,0.1111111111111111,22.22222222222222,0)" xlink:href="#ai"/><use transform="matrix(0.1111111111111111,0,0,0.1111111111111111,44.44444444444444,0)" xlink:href="#S"/><use transform="matrix(0.1111111111111111,0,0,0.1111111111111111,66.66666666666666,0)" xlink:href="#U"/><use transform="matrix(0.1111111111111111,0,0,0.1111111111111111,86.66666666666666,0)" xlink:href="#ag"/><use transform="matrix(0.1111111111111111,0,0,0.1111111111111111,108.88888888888889,0)" xlink:href="#ah"/><use transform="matrix(0.1111111111111111,0,0,0.1111111111111111,131.11111111111111,0)" xlink:href="#U"/><use transform="matrix(0.1111111111111111,0,0,0.1111111111111111,151.11111111111111,0)" xlink:href="#ag"/><use transform="matrix(0.1111111111111111,0,0,0.1111111111111111,173.33333333333334,0)" xlink:href="#ah"/></g><g id="D"><use transform="matrix(0.1111111111111111,0,0,0.1111111111111111,0,0)" xlink:href="#T"/><use transform="matrix(0.1111111111111111,0,0,0.1111111111111111,22.22222222222222,0)" xlink:href="#at"/><use transform="matrix(0.1111111111111111,0,0,0.1111111111111111,44.44444444444444,0)" xlink:href="#au"/><use transform="matrix(0.1111111111111111,0,0,0.1111111111111111,66.66666666666666,0)" xlink:href="#S"/></g><g id="E"><use transform="matrix(0.1111111111111111,0,0,0.1111111111111111,0,0)" xlink:href="#aa"/><use transform="matrix(0.1111111111111111,0,0,0.1111111111111111,22.22222222222222,0)" xlink:href="#at"/><use transform="matrix(0.1111111111111111,0,0,0.1111111111111111,44.44444444444444,0)" xlink:href="#at"/><use transform="matrix(0.1111111111111111,0,0,0.1111111111111111,66.66666666666666,0)" xlink:href="#at"/><use transform="matrix(0.1111111111111111,0,0,0.1111111111111111,88.88888888888889,0)" xlink:href="#W"/></g><g id="F"><use transform="matrix(0.1111111111111111,0,0,0.1111111111111111,0,0)" xlink:href="#aa"/><use transform="matrix(0.1111111111111111,0,0,0.1111111111111111,22.22222222222222,0)" xlink:href="#at"/><use transform="matrix(0.1111111111111111,0,0,0.1111111111111111,44.44444444444444,0)" xlink:href="#at"/><use transform="matrix(0.1111111111111111,0,0,0.1111111111111111,66.66666666666666,0)" xlink:href="#at"/></g><g id="G"><use transform="matrix(0.1111111111111111,0,0,0.1111111111111111,0,0)" xlink:href="#N"/><use transform="matrix(0.1111111111111111,0,0,0.1111111111111111,28.777777777777775,0)" xlink:href="#O"/><use transform="matrix(0.1111111111111111,0,0,0.1111111111111111,51,0)" xlink:href="#P"/><use transform="matrix(0.1111111111111111,0,0,0.1111111111111111,73.22222222222223,0)" xlink:href="#Q"/><use transform="matrix(0.1111111111111111,0,0,0.1111111111111111,93.22222222222223,0)" xlink:href="#R"/><use transform="matrix(0.1111111111111111,0,0,0.1111111111111111,106.44444444444446,0)" xlink:href="#ai"/><use transform="matrix(0.1111111111111111,0,0,0.1111111111111111,128.66666666666669,0)" xlink:href="#aa"/><use transform="matrix(0.1111111111111111,0,0,0.1111111111111111,150.8888888888889,0)" xlink:href="#ag"/><use transform="matrix(0.1111111111111111,0,0,0.1111111111111111,173.11111111111114,0)" xlink:href="#U"/><use transform="matrix(0.1111111111111111,0,0,0.1111111111111111,193.11111111111114,0)" xlink:href="#ag"/><use transform="matrix(0.1111111111111111,0,0,0.1111111111111111,215.33333333333337,0)" xlink:href="#ai"/><use transform="matrix(0.1111111111111111,0,0,0.1111111111111111,237.5555555555556,0)" xlink:href="#S"/><use transform="matrix(0.1111111111111111,0,0,0.1111111111111111,259.7777777777778,0)" xlink:href="#U"/><use transform="matrix(0.1111111111111111,0,0,0.1111111111111111,279.7777777777778,0)" xlink:href="#V"/><use transform="matrix(0.1111111111111111,0,0,0.1111111111111111,302.00000000000006,0)" xlink:href="#U"/><use transform="matrix(0.1111111111111111,0,0,0.1111111111111111,322.00000000000006,0)" xlink:href="#V"/><use transform="matrix(0.1111111111111111,0,0,0.1111111111111111,344.2222222222223,0)" xlink:href="#W"/><use transform="matrix(0.1111111111111111,0,0,0.1111111111111111,357.4444444444445,0)" xlink:href="#X"/></g><g id="H"><use transform="matrix(0.1111111111111111,0,0,0.1111111111111111,0,0)" xlink:href="#ai"/><use transform="matrix(0.1111111111111111,0,0,0.1111111111111111,22.22222222222222,0)" xlink:href="#aa"/><use transform="matrix(0.1111111111111111,0,0,0.1111111111111111,44.44444444444444,0)" xlink:href="#ag"/><use transform="matrix(0.1111111111111111,0,0,0.1111111111111111,66.66666666666666,0)" xlink:href="#U"/><use transform="matrix(0.1111111111111111,0,0,0.1111111111111111,86.66666666666666,0)" xlink:href="#ag"/><use transform="matrix(0.1111111111111111,0,0,0.1111111111111111,108.88888888888889,0)" xlink:href="#ah"/><use transform="matrix(0.1111111111111111,0,0,0.1111111111111111,131.11111111111111,0)" xlink:href="#U"/><use transform="matrix(0.1111111111111111,0,0,0.1111111111111111,151.11111111111111,0)" xlink:href="#ag"/><use transform="matrix(0.1111111111111111,0,0,0.1111111111111111,173.33333333333334,0)" xlink:href="#ah"/></g><g id="I"><use transform="matrix(0.1111111111111111,0,0,0.1111111111111111,0,0)" xlink:href="#N"/><use transform="matrix(0.1111111111111111,0,0,0.1111111111111111,28.777777777777775,0)" xlink:href="#O"/><use transform="matrix(0.1111111111111111,0,0,0.1111111111111111,51,0)" xlink:href="#P"/><use transform="matrix(0.1111111111111111,0,0,0.1111111111111111,73.22222222222223,0)" xlink:href="#Q"/><use transform="matrix(0.1111111111111111,0,0,0.1111111111111111,93.22222222222223,0)" xlink:href="#R"/><use transform="matrix(0.1111111111111111,0,0,0.1111111111111111,106.44444444444446,0)" xlink:href="#ai"/><use transform="matrix(0.1111111111111111,0,0,0.1111111111111111,128.66666666666669,0)" xlink:href="#aa"/><use transform="matrix(0.1111111111111111,0,0,0.1111111111111111,150.8888888888889,0)" xlink:href="#ag"/><use transform="matrix(0.1111111111111111,0,0,0.1111111111111111,173.11111111111114,0)" xlink:href="#U"/><use transform="matrix(0.1111111111111111,0,0,0.1111111111111111,193.11111111111114,0)" xlink:href="#ai"/><use transform="matrix(0.1111111111111111,0,0,0.1111111111111111,215.33333333333337,0)" xlink:href="#aa"/><use transform="matrix(0.1111111111111111,0,0,0.1111111111111111,237.5555555555556,0)" xlink:href="#ag"/><use transform="matrix(0.1111111111111111,0,0,0.1111111111111111,259.7777777777778,0)" xlink:href="#U"/><use transform="matrix(0.1111111111111111,0,0,0.1111111111111111,279.7777777777778,0)" xlink:href="#V"/><use transform="matrix(0.1111111111111111,0,0,0.1111111111111111,302.00000000000006,0)" xlink:href="#U"/><use transform="matrix(0.1111111111111111,0,0,0.1111111111111111,322.00000000000006,0)" xlink:href="#V"/><use transform="matrix(0.1111111111111111,0,0,0.1111111111111111,344.2222222222223,0)" xlink:href="#W"/><use transform="matrix(0.1111111111111111,0,0,0.1111111111111111,357.4444444444445,0)" xlink:href="#X"/></g><g id="J"><use transform="matrix(0.1111111111111111,0,0,0.1111111111111111,0,0)" xlink:href="#ai"/><use transform="matrix(0.1111111111111111,0,0,0.1111111111111111,22.22222222222222,0)" xlink:href="#aa"/><use transform="matrix(0.1111111111111111,0,0,0.1111111111111111,44.44444444444444,0)" xlink:href="#ag"/><use transform="matrix(0.1111111111111111,0,0,0.1111111111111111,66.66666666666666,0)" xlink:href="#U"/><use transform="matrix(0.1111111111111111,0,0,0.1111111111111111,86.66666666666666,0)" xlink:href="#aa"/><use transform="matrix(0.1111111111111111,0,0,0.1111111111111111,108.88888888888889,0)" xlink:href="#T"/><use transform="matrix(0.1111111111111111,0,0,0.1111111111111111,131.11111111111111,0)" xlink:href="#U"/><use transform="matrix(0.1111111111111111,0,0,0.1111111111111111,151.11111111111111,0)" xlink:href="#aa"/><use transform="matrix(0.1111111111111111,0,0,0.1111111111111111,173.33333333333334,0)" xlink:href="#T"/></g><path d="M64 0c3-98 48-159 88-221H18v-27h164v26C143-157 98-101 97 0H64" id="aE"/><g id="K"><use transform="matrix(0.1111111111111111,0,0,0.1111111111111111,0,0)" xlink:href="#ai"/><use transform="matrix(0.1111111111111111,0,0,0.1111111111111111,22.22222222222222,0)" xlink:href="#aa"/><use transform="matrix(0.1111111111111111,0,0,0.1111111111111111,44.44444444444444,0)" xlink:href="#ag"/><use transform="matrix(0.1111111111111111,0,0,0.1111111111111111,66.66666666666666,0)" xlink:href="#U"/><use transform="matrix(0.1111111111111111,0,0,0.1111111111111111,86.66666666666666,0)" xlink:href="#aE"/><use transform="matrix(0.1111111111111111,0,0,0.1111111111111111,108.88888888888889,0)" xlink:href="#U"/><use transform="matrix(0.1111111111111111,0,0,0.1111111111111111,128.88888888888889,0)" xlink:href="#aE"/><use transform="matrix(0.1111111111111111,0,0,0.1111111111111111,151.11111111111111,0)" xlink:href="#Z"/><use transform="matrix(0.1111111111111111,0,0,0.1111111111111111,174.44444444444446,0)" xlink:href="#ag"/><use transform="matrix(0.1111111111111111,0,0,0.1111111111111111,196.66666666666669,0)" xlink:href="#ai"/><use transform="matrix(0.1111111111111111,0,0,0.1111111111111111,218.8888888888889,0)" xlink:href="#at"/><use transform="matrix(0.1111111111111111,0,0,0.1111111111111111,241.11111111111114,0)" xlink:href="#ah"/><use transform="matrix(0.1111111111111111,0,0,0.1111111111111111,263.33333333333337,0)" xlink:href="#ah"/></g><g id="L"><use transform="matrix(0.1111111111111111,0,0,0.1111111111111111,0,0)" xlink:href="#aB"/><use transform="matrix(0.1111111111111111,0,0,0.1111111111111111,28.777777777777775,0)" xlink:href="#as"/><use transform="matrix(0.1111111111111111,0,0,0.1111111111111111,42,0)" xlink:href="#O"/><use transform="matrix(0.1111111111111111,0,0,0.1111111111111111,64.22222222222223,0)" xlink:href="#ak"/><use transform="matrix(0.1111111111111111,0,0,0.1111111111111111,86.44444444444446,0)" xlink:href="#O"/><use transform="matrix(0.1111111111111111,0,0,0.1111111111111111,108.66666666666669,0)" xlink:href="#al"/><use transform="matrix(0.1111111111111111,0,0,0.1111111111111111,130.8888888888889,0)" xlink:href="#am"/><use transform="matrix(0.1111111111111111,0,0,0.1111111111111111,142.00000000000003,0)" xlink:href="#R"/><use transform="matrix(0.1111111111111111,0,0,0.1111111111111111,155.22222222222226,0)" xlink:href="#at"/><use transform="matrix(0.1111111111111111,0,0,0.1111111111111111,177.44444444444449,0)" xlink:href="#aC"/><use transform="matrix(0.1111111111111111,0,0,0.1111111111111111,188.5555555555556,0)" xlink:href="#ai"/><use transform="matrix(0.1111111111111111,0,0,0.1111111111111111,210.77777777777783,0)" xlink:href="#W"/></g><g id="M"><use transform="matrix(0.1111111111111111,0,0,0.1111111111111111,0,0)" xlink:href="#T"/><use transform="matrix(0.1111111111111111,0,0,0.1111111111111111,22.22222222222222,0)" xlink:href="#at"/><use transform="matrix(0.1111111111111111,0,0,0.1111111111111111,44.44444444444444,0)" xlink:href="#au"/><use transform="matrix(0.1111111111111111,0,0,0.1111111111111111,66.66666666666666,0)" xlink:href="#S"/></g></defs></g></svg>